{"title":"The Premature Burial(1962)MPEG-4[DaScubaDude]","uid":14051498,"size":817698773,"categoryP":"video","categoryS":"movies","magnet":"?xt=urn:btih:b4f7e5f6de7228724ef3ecfca3d02f682e912d2c&amp;dn=The+Premature+Burial%281962%29MPEG-4%5BDaScubaDude%5D&amp;tr=udp%3A%2F%2Ftracker.leechers-paradise.org%3A6969&amp;tr=udp%3A%2F%2Fzer0day.ch%3A1337&amp;tr=udp%3A%2F%2Fopen.demonii.com%3A1337&amp;tr=udp%3A%2F%2Ftracker.coppersurfer.tk%3A6969&amp;tr=udp%3A%2F%2Fexodus.desync.com%3A6969","seeders":1,"leechers":0,"uploader":"dascuba","files":1,"time":1459056938,"description":"Premature Burial (1962)\r\nUnrated | 1h 21min | Drama, Horror, Mystery | 7 March 1962 (USA)\r\nAn artist grows distant from his new wife as an irrational horror of premature burial consumes him.\r\nDirector: Roger Corman\r\nWriters: Charles Beaumont (screenplay), Ray Russell (screenplay) | 1 more credit »\r\nStars: Ray Milland, Hazel Court, Richard Ney\r\n\r\nGeneral\r\nComplete name                            : Premature BurialPREMATURE_BURIAL_Title1.mp4\r\nFormat                                   : MPEG-4\r\nFormat profile                           : Base Media\r\nCodec ID                                 : isom\r\nFile size                                : 780 MiB\r\nDuration                                 : 1h 21mn\r\nOverall bit rate                         : 1 343 Kbps\r\nMovie name                               : PREMATURE_BURIAL\r\nWriting application                      : Lavf54.6.100\r\n\r\nVideo\r\nID                                       : 1\r\nFormat                                   : AVC\r\nFormat/Info                              : Advanced Video Codec\r\nFormat profile                           :   \r\nFormat settings, CABAC                   : No\r\nFormat settings, ReFrames                : 6 frames\r\nCodec ID                                 : avc1\r\nCodec ID/Info                            : Advanced Video Coding\r\nDuration                                 : 1h 21mn\r\nBit rate                                 : 1 198 Kbps\r\nWidth                                    : 720 pixels\r\nHeight                                   : 404 pixels\r\nDisplay aspect ratio                     : 16:9\r\nFrame rate mode                          : Constant\r\nFrame rate                               : 29.970 fps\r\nColor space                              : YUV\r\nChroma subsampling                       : 4:2:0\r\nBit depth                                : 8 bits\r\nScan type                                : Progressive\r\nBits/(Pixel*Frame)                       : 0.137\r\nStream size                              : 696 MiB (89%)\r\n\r\nAudio\r\nID                                       : 2\r\nFormat                                   : AAC\r\nFormat/Info                              : Advanced Audio Codec\r\nFormat profile                           : LC\r\nCodec ID                                 : 40\r\nDuration                                 : 1h 21mn\r\nBit rate mode                            : Constant\r\nBit rate                                 : 138 Kbps\r\nChannel(s)                               : 2 channels\r\nChannel positions                        : Front: L R\r\nSampling rate                            : 44.1 KHz\r\nCompression mode                         : Lossy\r\nStream size                              : 80.2 MiB (10%)","torrent":{"xt":"urn:btih:b4f7e5f6de7228724ef3ecfca3d02f682e912d2c","amp;dn":"The+Premature+Burial%281962%29MPEG-4%5BDaScubaDude%5D","amp;tr":["udp%3A%2F%2Ftracker.leechers-paradise.org%3A6969","udp%3A%2F%2Fzer0day.ch%3A1337","udp%3A%2F%2Fopen.demonii.com%3A1337","udp%3A%2F%2Ftracker.coppersurfer.tk%3A6969","udp%3A%2F%2Fexodus.desync.com%3A6969"],"infoHash":"b4f7e5f6de7228724ef3ecfca3d02f682e912d2c","infoHashBuffer":{"type":"Buffer","data":[180,247,229,246,222,114,40,114,78,243,236,252,163,208,47,104,46,145,45,44]},"announce":[],"urlList":[]}}